<svg width="486" height="102" viewBox="0 0 486 102" fill="none" xmlns="http://www.w3.org/2000/svg">
<path d="M0.554688 101.461V0H93.9297V19.8281H27.5547V41.0625H89.3594V59.1328H27.5547V81.6328H93.9297V101.461H0.554688Z" fill="#007AFF"/>
<path d="M122.617 71.1562V51.8203H166.773C172.727 51.8203 177.297 50.4609 180.484 47.7422C183.719 44.9766 185.336 41.0156 185.336 35.8594V35.7188C185.336 30.6094 183.719 26.6953 180.484 23.9766C177.297 21.2109 172.727 19.8281 166.773 19.8281H122.617V0H171.273C179.805 0 187.141 1.47656 193.281 4.42969C199.469 7.38281 204.227 11.5312 207.555 16.875C210.93 22.1719 212.617 28.3594 212.617 35.4375V35.5781C212.617 42.6094 210.93 48.7969 207.555 54.1406C204.227 59.4844 199.469 63.6562 193.281 66.6562C187.141 69.6562 179.805 71.1562 171.273 71.1562H122.617ZM109.117 101.461V0H136.047V101.461H109.117Z" fill="#007AFF"/>
<path d="M224.992 101.461V0H251.992V101.461H224.992Z" fill="#007AFF"/>
<path d="M303.602 101.461V20.6719H263.594V0H370.469V20.6719H330.531V101.461H303.602Z" fill="#007AFF"/>
<path d="M358.164 101.461L404.922 0H430.375V21.2344H421.586L386.641 101.461H358.164ZM382.492 78.3984L390.227 60.2578H452.734L460.398 78.3984H382.492ZM457.023 101.461L422.078 21.2344V0H438.742L485.5 101.461H457.023Z" fill="#007AFF"/>
</svg>
